<svg xmlns="http://www.w3.org/2000/svg" version="1.1" xmlns:xlink="http://www.w3.org/1999/xlink" width="1000" height="1000"><style>
    #light-icon {
      display: inline;
    }
    #dark-icon {
      display: none;
    }

    @media (prefers-color-scheme: dark) {
      #light-icon {
        display: none;
      }
      #dark-icon {
        display: inline;
      }
    }
  </style><g id="light-icon"><svg xmlns="http://www.w3.org/2000/svg" version="1.1" xmlns:xlink="http://www.w3.org/1999/xlink" width="1000" height="1000"><g clip-path="url(#SvgjsClipPath1220)"><rect width="1000" height="1000" fill="#ffffff"></rect><g transform="matrix(3.0821917808219177,0,0,3.0821917808219177,50,348.972602739726)"><svg xmlns="http://www.w3.org/2000/svg" version="1.1" xmlns:xlink="http://www.w3.org/1999/xlink" width="292" height="98"><svg width="292" height="98" version="1.1" xmlns="http://www.w3.org/2000/svg" desc="Created with imagetracer.js version 1.2.6"><path fill="rgb(251,244,244)" stroke="rgb(251,244,244)" stroke-width="1" opacity="1" d="M 179.5 26 L 189 26 L 189 35.5 L 188 35.5 L 188 27 L 179.5 27 L 179.5 26 Z "></path><path fill="rgb(251,244,244)" stroke="rgb(251,244,244)" stroke-width="1" opacity="1" d="M 207.5 35 L 214 35.5 L 207.5 36 L 207.5 35 Z "></path><path fill="rgb(251,244,244)" stroke="rgb(251,244,244)" stroke-width="1" opacity="1" d="M 238.5 35 L 244 35.5 L 238.5 36 L 238.5 35 Z "></path><path fill="rgb(251,244,244)" stroke="rgb(251,244,244)" stroke-width="1" opacity="1" d="M 63.5 37 L 65.5 40 L 63.5 37 Z "></path><path fill="rgb(251,244,244)" stroke="rgb(251,244,244)" stroke-width="1" opacity="1" d="M 76.5 37 L 75.5 39 L 76.5 37 Z "></path><path fill="rgb(251,244,244)" stroke="rgb(251,244,244)" stroke-width="1" opacity="1" d="M 133.5 37 L 134 42.5 L 133 42.5 L 133.5 37 Z "></path><path fill="rgb(251,244,244)" stroke="rgb(251,244,244)" stroke-width="1" opacity="1" d="M 218.5 37 L 222.5 42 L 218.5 37 Z "></path><path fill="rgb(251,244,244)" stroke="rgb(251,244,244)" stroke-width="1" opacity="1" d="M 94.5 38 L 95.5 40 L 94.5 38 Z "></path><path fill="rgb(251,244,244)" stroke="rgb(251,244,244)" stroke-width="1" opacity="1" d="M 231.5 38 L 228.5 42 L 231.5 38 Z "></path><path fill="rgb(251,244,244)" stroke="rgb(251,244,244)" stroke-width="1" opacity="1" d="M 207.5 42 L 206.5 44 L 207.5 42 Z "></path><path fill="rgb(251,244,244)" stroke="rgb(251,244,244)" stroke-width="1" opacity="1" d="M 34.5 43 L 37 43.5 L 34.5 44 L 34.5 43 Z "></path><path fill="rgb(251,244,244)" stroke="rgb(251,244,244)" stroke-width="1" opacity="1" d="M 52.5 43 L 55 43.5 L 52.5 44 L 52.5 43 Z "></path><path fill="rgb(251,244,244)" stroke="rgb(251,244,244)" stroke-width="1" opacity="1" d="M 189.5 43 L 189 44.5 L 188.5 53 L 188 44.5 L 189.5 43 Z "></path><path fill="rgb(251,244,244)" stroke="rgb(251,244,244)" stroke-width="1" opacity="1" d="M 240.5 43 L 244 43.5 L 240.5 44 L 240.5 43 Z "></path><path fill="rgb(251,244,244)" stroke="rgb(251,244,244)" stroke-width="1" opacity="1" d="M 32.5 44 L 33.5 46 L 32.5 44 Z "></path><path fill="rgb(251,244,244)" stroke="rgb(251,244,244)" stroke-width="1" opacity="1" d="M 38.5 44 L 37.5 46 L 38.5 44 Z "></path><path fill="rgb(251,244,244)" stroke="rgb(251,244,244)" stroke-width="1" opacity="1" d="M 50.5 44 L 51.5 46 L 50.5 44 Z "></path><path fill="rgb(251,244,244)" stroke="rgb(251,244,244)" stroke-width="1" opacity="1" d="M 214.5 44 L 215 46 L 206 45.5 L 214.5 44 Z "></path><path fill="rgb(251,244,244)" stroke="rgb(251,244,244)" stroke-width="1" opacity="1" d="M 238.5 44 L 237.5 46 L 238.5 44 Z "></path><path fill="rgb(251,244,244)" stroke="rgb(251,244,244)" stroke-width="1" opacity="1" d="M 100.5 45 L 101 50.5 L 100 50.5 L 100.5 45 Z "></path><path fill="rgb(251,244,244)" stroke="rgb(251,244,244)" stroke-width="1" opacity="1" d="M 142.5 45 L 143.5 47 L 142.5 45 Z "></path><path fill="rgb(251,244,244)" stroke="rgb(251,244,244)" stroke-width="1" opacity="1" d="M 49.5 46 L 50 62.5 L 49 62.5 L 49.5 46 Z "></path><path fill="rgb(251,244,244)" stroke="rgb(251,244,244)" stroke-width="1" opacity="1" d="M 68.5 46 L 69 48.5 L 68 48.5 L 68.5 46 Z "></path><path fill="rgb(251,244,244)" stroke="rgb(251,244,244)" stroke-width="1" opacity="1" d="M 39.5 47 L 40 62.5 L 39 62.5 L 39.5 47 Z "></path><path fill="rgb(251,244,244)" stroke="rgb(251,244,244)" stroke-width="1" opacity="1" d="M 195.5 47 L 196 51.5 L 195 51.5 L 195.5 47 Z "></path><path fill="rgb(251,244,244)" stroke="rgb(251,244,244)" stroke-width="1" opacity="1" d="M 224.5 47 L 225 50.5 L 224 50.5 L 224.5 47 Z "></path><path fill="rgb(251,244,244)" stroke="rgb(251,244,244)" stroke-width="1" opacity="1" d="M 68.5 51 L 69 53.5 L 68 53.5 L 68.5 51 Z "></path><path fill="rgb(251,244,244)" stroke="rgb(251,244,244)" stroke-width="1" opacity="1" d="M 166.5 52 L 165.5 54 L 166.5 52 Z "></path><path fill="rgb(251,244,244)" stroke="rgb(251,244,244)" stroke-width="1" opacity="1" d="M 90.5 53 L 89.5 55 L 90.5 53 Z "></path><path fill="rgb(251,244,244)" stroke="rgb(251,244,244)" stroke-width="1" opacity="1" d="M 216.5 53 L 215.5 55 L 216.5 53 Z "></path><path fill="rgb(251,244,244)" stroke="rgb(251,244,244)" stroke-width="1" opacity="1" d="M 237.5 53 L 238.5 55 L 237.5 53 Z "></path><path fill="rgb(251,244,244)" stroke="rgb(251,244,244)" stroke-width="1" opacity="1" d="M 83.5 55 L 88 55.5 L 83.5 56 L 83.5 55 Z "></path><path fill="rgb(251,244,244)" stroke="rgb(251,244,244)" stroke-width="1" opacity="1" d="M 208.5 55 L 214 55.5 L 208.5 56 L 208.5 55 Z "></path><path fill="rgb(251,244,244)" stroke="rgb(251,244,244)" stroke-width="1" opacity="1" d="M 222.5 55 L 224 57.5 L 220 60.5 L 223 56.5 L 222.5 55 Z "></path><path fill="rgb(251,244,244)" stroke="rgb(251,244,244)" stroke-width="1" opacity="1" d="M 240.5 55 L 244 55.5 L 240.5 56 L 240.5 55 Z "></path><path fill="rgb(251,244,244)" stroke="rgb(251,244,244)" stroke-width="1" opacity="1" d="M 162.5 56 L 163 58.5 L 162 58.5 L 162.5 56 Z "></path><path fill="rgb(251,244,244)" stroke="rgb(251,244,244)" stroke-width="1" opacity="1" d="M 228.5 57 L 231.5 61 L 228.5 57 Z "></path><path fill="rgb(251,244,244)" stroke="rgb(251,244,244)" stroke-width="1" opacity="1" d="M 75.5 60 L 76.5 62 L 75.5 60 Z "></path><path fill="rgb(251,244,244)" stroke="rgb(251,244,244)" stroke-width="1" opacity="1" d="M 132.5 60 L 133.5 62 L 132.5 60 Z "></path><path fill="rgb(251,244,244)" stroke="rgb(251,244,244)" stroke-width="1" opacity="1" d="M 233.5 61 L 236 62.5 L 234.5 63 L 233.5 61 Z "></path><path fill="rgb(251,244,244)" stroke="rgb(251,244,244)" stroke-width="1" opacity="1" d="M 185.5 63 L 191 63.5 L 185.5 64 L 185.5 63 Z "></path><path fill="rgb(251,244,244)" stroke="rgb(251,244,244)" stroke-width="1" opacity="1" d="M 207.5 63 L 214 63.5 L 207.5 64 L 207.5 63 Z "></path><path fill="rgb(251,244,244)" stroke="rgb(251,244,244)" stroke-width="1" opacity="1" d="M 237.5 63 L 244 63.5 L 237.5 64 L 237.5 63 Z "></path><path fill="rgb(254,255,255)" stroke="rgb(254,255,255)" stroke-width="1" opacity="1" d="M 37.5 33 L 41 33.5 L 37.5 34 L 37.5 33 Z "></path><path fill="rgb(254,255,255)" stroke="rgb(254,255,255)" stroke-width="1" opacity="1" d="M 55.5 33 L 58 33.5 L 55.5 34 L 55.5 33 Z "></path><path fill="rgb(254,255,255)" stroke="rgb(254,255,255)" stroke-width="1" opacity="1" d="M 82.5 33 L 87 33.5 L 82.5 34 L 82.5 33 Z "></path><path fill="rgb(254,255,255)" stroke="rgb(254,255,255)" stroke-width="1" opacity="1" d="M 117.5 33 L 121 33.5 L 117.5 34 L 117.5 33 Z "></path><path fill="rgb(254,255,255)" stroke="rgb(254,255,255)" stroke-width="1" opacity="1" d="M 22.5 34 L 32 34.5 L 22.5 35 L 22.5 34 Z "></path><path fill="rgb(254,255,255)" stroke="rgb(254,255,255)" stroke-width="1" opacity="1" d="M 34.5 34 L 36 34.5 L 33.5 36 L 34.5 34 Z "></path><path fill="rgb(254,255,255)" stroke="rgb(254,255,255)" stroke-width="1" opacity="1" d="M 42.5 34 L 48.5 37 L 53.5 34 L 53.5 35 Q 51.3 34.3 52 36.5 Q 50.3 34.9 48.5 38 L 42.5 35 L 42.5 34 Z "></path><path fill="rgb(254,255,255)" stroke="rgb(254,255,255)" stroke-width="1" opacity="1" d="M 60.5 34 L 68 39.5 L 69.5 43 L 75.5 36 L 77.5 35 L 76.5 37 L 71 41.5 L 68.5 46 Q 68.7 39.3 64.5 37 Q 59.8 36.2 60.5 34 Z "></path><path fill="rgb(254,255,255)" stroke="rgb(254,255,255)" stroke-width="1" opacity="1" d="M 89.5 34 L 98 39.5 L 99.5 42 L 100.5 36 L 101 44.5 L 99 43.5 L 95.5 38 L 92.5 36 L 91 36.5 Q 91.8 34.3 89.5 35 L 88 35.5 L 89.5 34 Z "></path><path fill="rgb(254,255,255)" stroke="rgb(254,255,255)" stroke-width="1" opacity="1" d="M 102.5 34 L 112 34.5 L 102.5 35 L 102.5 34 Z "></path><path fill="rgb(254,255,255)" stroke="rgb(254,255,255)" stroke-width="1" opacity="1" d="M 114.5 34 L 117 35.5 L 114.5 36 L 113 35.5 L 114.5 34 Z "></path><path fill="rgb(254,255,255)" stroke="rgb(254,255,255)" stroke-width="1" opacity="1" d="M 123.5 34 Q 130.4 35.6 133 41.5 L 134 43.5 L 133 44.5 L 133 57.5 L 135 56.5 L 141 46 L 135 45.5 L 142 45 L 142 47.5 L 134 60 L 132 59.5 L 132 41.5 L 126.5 36 L 125 36.5 Q 125.8 34.3 123.5 35 L 123.5 34 Z "></path><path fill="rgb(254,255,255)" stroke="rgb(254,255,255)" stroke-width="1" opacity="1" d="M 135.5 34 L 162 34.5 L 135.5 35 L 135.5 34 Z "></path><path fill="rgb(254,255,255)" stroke="rgb(254,255,255)" stroke-width="1" opacity="1" d="M 20.5 36 L 21 62.5 L 20 62.5 L 20.5 36 Z "></path><path fill="rgb(254,255,255)" stroke="rgb(254,255,255)" stroke-width="1" opacity="1" d="M 163.5 36 L 164 37.5 L 153 52.5 L 161 53.5 L 152.5 54 L 151.5 55 L 151 53.5 L 163.5 36 Z "></path><path fill="rgb(254,255,255)" stroke="rgb(254,255,255)" stroke-width="1" opacity="1" d="M 84.5 42 L 88 44.5 L 86.5 44 L 82.5 45 L 82 43 L 84.5 42 Z "></path><path fill="rgb(254,255,255)" stroke="rgb(254,255,255)" stroke-width="1" opacity="1" d="M 116.5 43 L 119 44.5 L 120 46.5 L 120 62.5 L 119 62.5 L 119 46.5 L 118 44 L 115.5 45 L 116.5 43 Z "></path><path fill="rgb(254,255,255)" stroke="rgb(254,255,255)" stroke-width="1" opacity="1" d="M 34.5 44 L 35 45.5 L 34 46.5 L 33.5 63 L 33 46.5 L 34.5 44 Z "></path><path fill="rgb(254,255,255)" stroke="rgb(254,255,255)" stroke-width="1" opacity="1" d="M 36.5 44 L 38 46.5 L 38 62.5 L 37 62.5 L 37 46.5 L 36.5 44 Z "></path><path fill="rgb(254,255,255)" stroke="rgb(254,255,255)" stroke-width="1" opacity="1" d="M 54.5 44 L 57 45.5 L 56 46.5 L 55.5 63 L 55 46.5 L 54.5 44 Z "></path><path fill="rgb(254,255,255)" stroke="rgb(254,255,255)" stroke-width="1" opacity="1" d="M 51.5 46 L 52 61.5 L 51 61.5 L 51.5 46 Z "></path><path fill="rgb(254,255,255)" stroke="rgb(254,255,255)" stroke-width="1" opacity="1" d="M 113.5 47 L 114 62.5 L 113 62.5 L 113.5 47 Z "></path><path fill="rgb(254,255,255)" stroke="rgb(254,255,255)" stroke-width="1" opacity="1" d="M 168.5 49 L 172 49.5 Q 167.8 49.3 166.5 52 L 168.5 49 Z "></path><path fill="rgb(254,255,255)" stroke="rgb(254,255,255)" stroke-width="1" opacity="1" d="M 173.5 50 L 175 52.5 L 174 52.5 L 173.5 50 Z "></path><path fill="rgb(254,255,255)" stroke="rgb(254,255,255)" stroke-width="1" opacity="1" d="M 81.5 51 L 84 54.5 L 83 54.5 L 81.5 51 Z "></path><path fill="rgb(254,255,255)" stroke="rgb(254,255,255)" stroke-width="1" opacity="1" d="M 91.5 51 L 90.5 53 L 87.5 55 L 87 53 L 91.5 51 Z "></path><path fill="rgb(254,255,255)" stroke="rgb(254,255,255)" stroke-width="1" opacity="1" d="M 100.5 51 L 101 62.5 L 100 62.5 L 99.5 58 L 98 61 L 89.5 65 L 89.5 64 Q 96.7 62.2 100 56.5 L 100.5 51 Z "></path><path fill="rgb(254,255,255)" stroke="rgb(254,255,255)" stroke-width="1" opacity="1" d="M 93 52 L 97 53.5 L 95 54.5 L 94.5 53 L 93 53.5 L 93 52 Z "></path><path fill="rgb(254,255,255)" stroke="rgb(254,255,255)" stroke-width="1" opacity="1" d="M 164.5 52 L 164 53.5 L 162.5 56 L 163 54.5 L 164.5 52 Z "></path><path fill="rgb(254,255,255)" stroke="rgb(254,255,255)" stroke-width="1" opacity="1" d="M 68.5 54 L 75.5 62 L 78 63.5 L 76.5 63 L 69.5 57 L 68.5 63 L 68.5 54 Z "></path><path fill="rgb(254,255,255)" stroke="rgb(254,255,255)" stroke-width="1" opacity="1" d="M 177.5 54 Q 180 55 179 59.5 L 176 61.5 Q 179 60.5 178 55.5 L 177.5 54 Z "></path><path fill="rgb(254,255,255)" stroke="rgb(254,255,255)" stroke-width="1" opacity="1" d="M 162.5 59 Q 165.3 60.3 163 61.5 L 162.5 63 L 162.5 59 Z "></path><path fill="rgb(254,255,255)" stroke="rgb(254,255,255)" stroke-width="1" opacity="1" d="M 166.5 62 L 168 64.5 L 166 63.5 L 166.5 62 Z "></path><path fill="rgb(254,255,255)" stroke="rgb(254,255,255)" stroke-width="1" opacity="1" d="M 174.5 63 L 173.5 65 L 174.5 63 Z "></path><path fill="rgb(254,255,255)" stroke="rgb(254,255,255)" stroke-width="1" opacity="1" d="M 22.5 64 L 32 64.5 L 22.5 65 L 22.5 64 Z "></path><path fill="rgb(254,255,255)" stroke="rgb(254,255,255)" stroke-width="1" opacity="1" d="M 40.5 64 L 49 64.5 L 40.5 65 L 40.5 64 Z "></path><path fill="rgb(254,255,255)" stroke="rgb(254,255,255)" stroke-width="1" opacity="1" d="M 57.5 64 L 67 64.5 L 57.5 65 L 57.5 64 Z "></path><path fill="rgb(254,255,255)" stroke="rgb(254,255,255)" stroke-width="1" opacity="1" d="M 102.5 64 L 112 64.5 L 102.5 65 L 102.5 64 Z "></path><path fill="rgb(254,255,255)" stroke="rgb(254,255,255)" stroke-width="1" opacity="1" d="M 121.5 64 L 131 64.5 L 121.5 65 L 121.5 64 Z "></path><path fill="rgb(254,255,255)" stroke="rgb(254,255,255)" stroke-width="1" opacity="1" d="M 133.5 64 L 161 64.5 L 133.5 65 L 133.5 64 Z "></path><path fill="rgb(254,255,255)" stroke="rgb(254,255,255)" stroke-width="1" opacity="1" d="M 82.5 65 L 87 65.5 L 82.5 66 L 82.5 65 Z "></path><path fill="rgb(254,255,255)" stroke="rgb(254,255,255)" stroke-width="1" opacity="1" d="M 169.5 65 L 172 65.5 L 169.5 66 L 169.5 65 Z "></path><path fill="rgb(255,255,255)" stroke="rgb(255,255,255)" stroke-width="1" opacity="1" d="M 0 0 L 292 0 L 292 98 L 0 98 L 0 0 Z M 179 26 L 179 36 L 175 36 L 175 44 L 179 44 L 179 55 L 178 56 L 179 60 L 180 58 L 181 62 L 186 64 Q 192 65 195 62 L 193 56 Q 194 53 192 54 Q 190 56 189 54 L 189 44 L 194 44 L 194 36 L 189 36 L 189 26 L 179 26 Z M 38 33 L 38 34 L 41 34 L 38 33 Z M 56 33 L 56 34 L 58 34 L 56 33 Z M 83 33 L 83 34 L 87 34 L 83 33 Z M 118 33 L 118 34 L 121 34 L 118 33 Z M 23 34 L 23 35 L 32 35 L 23 34 Z M 103 34 L 103 35 L 112 35 L 103 34 Z M 115 34 Q 112 35 114 37 L 112 38 L 112 36 L 102 36 L 102 63 L 112 63 L 112 48 L 113 46 Q 114 43 116 45 L 118 44 L 119 46 L 120 44 L 121 47 L 121 63 L 131 63 L 131 43 L 130 41 Q 125 38 127 35 L 125 36 L 123 35 Q 117 34 116 36 L 116 35 L 115 34 Z M 136 34 L 136 35 L 162 35 L 136 34 Z M 37 35 L 35 36 L 32 38 L 32 36 L 22 36 L 22 63 L 32 63 L 32 46 L 34 44 L 33 46 L 34 63 L 34 47 L 36 44 L 37 47 L 38 63 L 38 46 L 38 44 L 39 46 L 39 63 L 50 63 L 50 46 L 54 44 L 55 47 L 56 63 L 56 47 L 57 47 L 57 63 L 67 63 L 67 42 L 66 40 Q 62 38 65 37 L 63 35 L 63 37 L 60 35 Q 55 34 54 36 L 51 35 L 51 37 L 48 39 Q 44 37 46 35 L 44 36 L 37 35 Z M 82 35 L 78 37 L 76 36 L 76 38 L 70 46 Q 69 54 72 58 Q 77 60 76 63 L 78 62 L 82 64 Q 89 65 93 62 L 92 64 L 94 64 Q 96 63 94 62 L 98 58 Q 99 54 97 55 L 97 53 L 95 54 L 95 52 L 93 53 L 90 52 L 89 55 L 89 53 Q 86 52 87 55 L 84 55 L 83 52 L 82 54 L 83 55 L 80 52 L 83 51 L 91 51 L 92 52 L 93 51 L 99 51 Q 100 43 96 40 L 96 37 L 94 38 L 93 35 L 91 36 L 82 35 Z M 208 35 L 203 37 Q 197 40 195 48 Q 195 56 199 60 L 208 64 Q 216 65 221 61 L 224 57 L 219 53 L 215 55 Q 208 57 206 54 L 207 51 L 225 51 L 223 42 Q 219 34 208 35 Z M 239 35 L 232 38 L 226 46 Q 225 54 228 58 L 238 64 L 244 64 L 250 62 L 247 54 Q 245 56 240 55 L 236 51 Q 236 46 240 44 Q 245 43 247 45 L 250 39 L 248 36 L 239 35 Z M 21 36 L 20 63 L 21 63 L 21 36 Z M 101 36 L 99 43 L 100 45 L 100 57 L 99 58 L 100 63 L 101 63 L 101 36 Z M 134 36 L 132 42 L 132 61 L 134 60 L 133 58 L 133 45 L 134 44 L 134 36 Z M 135 36 L 135 44 L 143 44 L 145 45 L 133 63 L 161 63 L 161 63 L 161 55 L 152 55 L 161 54 L 154 53 L 151 53 L 162 37 L 135 36 Z M 164 36 L 162 39 L 164 38 L 164 36 Z M 69 41 L 69 63 L 69 58 L 71 58 L 69 55 L 69 46 L 70 45 L 69 41 Z M 52 45 L 51 62 L 52 62 L 52 45 Z M 136 45 L 136 46 L 141 46 L 142 48 L 143 46 L 136 45 Z M 120 46 L 119 63 L 120 63 L 120 46 Z M 114 47 L 113 63 L 114 63 L 114 47 Z M 169 49 L 169 50 L 172 50 L 169 49 Z M 167 51 L 164 56 L 164 60 L 166 64 L 169 64 L 173 64 L 177 60 L 177 56 L 175 52 L 174 52 L 169 51 L 167 51 Z M 163 55 L 163 63 L 164 61 L 163 55 Z M 98 59 L 96 61 L 98 61 L 98 59 Z M 23 64 L 23 65 L 32 65 L 23 64 Z M 41 64 L 41 65 L 49 65 L 41 64 Z M 58 64 L 58 65 L 67 65 L 58 64 Z M 90 64 L 90 65 L 92 65 L 90 64 Z M 103 64 L 103 65 L 112 65 L 103 64 Z M 122 64 L 122 65 L 131 65 L 122 64 Z M 134 64 L 134 65 L 161 65 L 134 64 Z M 83 65 L 83 66 L 87 66 L 83 65 Z M 170 65 L 170 66 L 172 66 L 170 65 Z "></path><path fill="rgb(255,255,255)" stroke="rgb(255,255,255)" stroke-width="1" opacity="1" d="M 85.5 42 L 89 44.5 L 86.5 45 L 83 44.5 L 87 43.5 L 85.5 42 Z "></path><path fill="rgb(255,255,255)" stroke="rgb(255,255,255)" stroke-width="1" opacity="1" d="M 208.5 42 L 214 43 L 213.5 45 L 206.5 45 L 208.5 42 Z "></path><path fill="rgb(5,5,5)" stroke="rgb(5,5,5)" stroke-width="1" opacity="1" d="M 24.5 37 Q 25.8 39.3 30.5 38 L 32 39.5 L 30.5 40 L 25 39 L 25 59.5 Q 25 60.5 29.5 60 L 29.5 61 L 24.5 62 L 24.5 37 Z "></path><path fill="rgb(5,5,5)" stroke="rgb(5,5,5)" stroke-width="1" opacity="1" d="M 109.5 37 L 110 39 L 104 38.5 L 109.5 37 Z "></path><path fill="rgb(5,5,5)" stroke="rgb(5,5,5)" stroke-width="1" opacity="1" d="M 114.5 37 L 115.5 39 L 114.5 37 Z "></path><path fill="rgb(5,5,5)" stroke="rgb(5,5,5)" stroke-width="1" opacity="1" d="M 137.5 37 L 138.5 38 L 157.5 38 Q 158.8 35.8 160 38.5 L 157.5 39 L 138.5 39 L 138 42.5 L 137 42.5 L 137.5 37 Z "></path><path fill="rgb(5,5,5)" stroke="rgb(5,5,5)" stroke-width="1" opacity="1" d="M 50.5 38 L 52.5 38 L 54 38.5 L 51.5 40 Q 50 37.5 48.5 41 L 47 40.5 L 50.5 38 Z "></path><path fill="rgb(5,5,5)" stroke="rgb(5,5,5)" stroke-width="1" opacity="1" d="M 63.5 38 Q 66.5 39.5 63.5 41 Q 60.5 39.5 63.5 38 Z "></path><path fill="rgb(5,5,5)" stroke="rgb(5,5,5)" stroke-width="1" opacity="1" d="M 75.5 39 L 74.5 43 Q 71 41 75.5 39 Z "></path><path fill="rgb(5,5,5)" stroke="rgb(5,5,5)" stroke-width="1" opacity="1" d="M 83.5 39 L 86 39.5 L 83.5 40 L 83.5 39 Z "></path><path fill="rgb(5,5,5)" stroke="rgb(5,5,5)" stroke-width="1" opacity="1" d="M 92.5 39 L 94.5 42 L 92.5 39 Z "></path><path fill="rgb(5,5,5)" stroke="rgb(5,5,5)" stroke-width="1" opacity="1" d="M 156.5 40 L 157.5 42 L 156.5 40 Z "></path><path fill="rgb(5,5,5)" stroke="rgb(5,5,5)" stroke-width="1" opacity="1" d="M 87.5 41 L 89.5 44 L 87.5 41 Z "></path><path fill="rgb(5,5,5)" stroke="rgb(5,5,5)" stroke-width="1" opacity="1" d="M 34.5 42 L 37 42.5 L 34.5 43 L 34.5 42 Z "></path><path fill="rgb(5,5,5)" stroke="rgb(5,5,5)" stroke-width="1" opacity="1" d="M 51.5 42 L 55 42.5 L 51.5 43 L 51.5 42 Z "></path><path fill="rgb(5,5,5)" stroke="rgb(5,5,5)" stroke-width="1" opacity="1" d="M 96.5 42 L 95.5 44 L 96.5 42 Z "></path><path fill="rgb(5,5,5)" stroke="rgb(5,5,5)" stroke-width="1" opacity="1" d="M 129.5 42 L 129 43.5 L 128.5 62 L 124.5 61 L 123 61.5 L 123.5 46 L 124 60 L 128 59.5 L 128 43.5 L 129.5 42 Z "></path><path fill="rgb(5,5,5)" stroke="rgb(5,5,5)" stroke-width="1" opacity="1" d="M 32.5 43 L 31.5 45 L 32.5 43 Z "></path><path fill="rgb(5,5,5)" stroke="rgb(5,5,5)" stroke-width="1" opacity="1" d="M 38.5 43 L 39.5 45 L 38.5 43 Z "></path><path fill="rgb(5,5,5)" stroke="rgb(5,5,5)" stroke-width="1" opacity="1" d="M 64.5 43 L 65 61.5 L 63.5 61 L 59.5 62 L 59 60 L 64 59.5 L 64.5 43 Z "></path><path fill="rgb(5,5,5)" stroke="rgb(5,5,5)" stroke-width="1" opacity="1" d="M 78.5 43 L 80 45.5 L 79 45.5 L 78.5 43 Z "></path><path fill="rgb(5,5,5)" stroke="rgb(5,5,5)" stroke-width="1" opacity="1" d="M 113.5 43 L 112.5 45 L 113.5 43 Z "></path><path fill="rgb(5,5,5)" stroke="rgb(5,5,5)" stroke-width="1" opacity="1" d="M 154.5 43 L 155.5 45 L 154.5 43 Z "></path><path fill="rgb(5,5,5)" stroke="rgb(5,5,5)" stroke-width="1" opacity="1" d="M 71.5 45 Q 74.5 46.5 73 52.5 L 71 53.5 Q 73.5 52 72 46.5 L 71.5 45 Z "></path><path fill="rgb(5,5,5)" stroke="rgb(5,5,5)" stroke-width="1" opacity="1" d="M 48.5 46 L 49 61.5 L 48 61.5 L 48.5 46 Z "></path><path fill="rgb(5,5,5)" stroke="rgb(5,5,5)" stroke-width="1" opacity="1" d="M 40.5 47 L 41 61.5 L 40 61.5 L 40.5 47 Z "></path><path fill="rgb(5,5,5)" stroke="rgb(5,5,5)" stroke-width="1" opacity="1" d="M 96.5 47 L 97 49.5 L 96 49.5 L 96.5 47 Z "></path><path fill="rgb(5,5,5)" stroke="rgb(5,5,5)" stroke-width="1" opacity="1" d="M 109.5 47 L 110 61.5 L 108.5 61 L 104 60.5 L 109 60 L 109.5 47 Z "></path><path fill="rgb(5,5,5)" stroke="rgb(5,5,5)" stroke-width="1" opacity="1" d="M 80.5 54 L 81.5 56 L 80.5 54 Z "></path><path fill="rgb(5,5,5)" stroke="rgb(5,5,5)" stroke-width="1" opacity="1" d="M 138.5 55 L 139.5 57 L 138.5 55 Z "></path><path fill="rgb(5,5,5)" stroke="rgb(5,5,5)" stroke-width="1" opacity="1" d="M 74.5 56 L 75.5 60 Q 71 58 74.5 56 Z "></path><path fill="rgb(5,5,5)" stroke="rgb(5,5,5)" stroke-width="1" opacity="1" d="M 83.5 56 L 88 56.5 L 82.5 58 L 83.5 56 Z "></path><path fill="rgb(5,5,5)" stroke="rgb(5,5,5)" stroke-width="1" opacity="1" d="M 95.5 57 L 94.5 59 L 95.5 57 Z "></path><path fill="rgb(5,5,5)" stroke="rgb(5,5,5)" stroke-width="1" opacity="1" d="M 136.5 58 L 138.5 60 L 159 60.5 L 136.5 61 L 136.5 58 Z "></path><path fill="rgb(5,5,5)" stroke="rgb(5,5,5)" stroke-width="1" opacity="1" d="M 92.5 59 L 93.5 61 L 92.5 59 Z "></path><path fill="rgb(5,5,5)" stroke="rgb(5,5,5)" stroke-width="1" opacity="1" d="M 42.5 60 L 47 60.5 L 42.5 61 L 42.5 60 Z "></path><path fill="rgb(5,5,5)" stroke="rgb(5,5,5)" stroke-width="1" opacity="1" d="M 86.5 62 L 89 62.5 L 86.5 63 L 86.5 62 Z "></path><path fill="rgb(175,152,152)" stroke="rgb(175,152,152)" stroke-width="1" opacity="1" d="M 55.5 35 L 58 35.5 L 55.5 36 L 55.5 35 Z "></path><path fill="rgb(175,152,152)" stroke="rgb(175,152,152)" stroke-width="1" opacity="1" d="M 83.5 35 L 86 35.5 L 83.5 36 L 83.5 35 Z "></path><path fill="rgb(175,152,152)" stroke="rgb(175,152,152)" stroke-width="1" opacity="1" d="M 118.5 35 L 121 35.5 L 118.5 36 L 118.5 35 Z "></path><path fill="rgb(175,152,152)" stroke="rgb(175,152,152)" stroke-width="1" opacity="1" d="M 22.5 36 L 30.5 36 L 32 37.5 L 31.5 39 L 31 37 L 22.5 37 L 22.5 36 Z "></path><path fill="rgb(175,152,152)" stroke="rgb(175,152,152)" stroke-width="1" opacity="1" d="M 103.5 36 L 112 36.5 L 103 37 L 103 61.5 Q 103.3 62.8 109.5 62 L 109.5 63 Q 103.5 64.5 102 61.5 L 102 37.5 L 103.5 36 Z "></path><path fill="rgb(175,152,152)" stroke="rgb(175,152,152)" stroke-width="1" opacity="1" d="M 135 36 L 161 36.5 L 136 37 L 136 43 L 145.5 43 L 146 44.5 L 144 45.5 L 144.5 44 L 136.5 44 L 135 42.5 L 135 36 Z "></path><path fill="rgb(175,152,152)" stroke="rgb(175,152,152)" stroke-width="1" opacity="1" d="M 176.5 36 L 179 36.5 L 176 37 L 177 43.5 L 175 42.5 Q 173.8 37.3 176.5 36 Z "></path><path fill="rgb(175,152,152)" stroke="rgb(175,152,152)" stroke-width="1" opacity="1" d="M 188.5 36 L 193 36.5 L 188.5 37 L 188.5 36 Z "></path><path fill="rgb(175,152,152)" stroke="rgb(175,152,152)" stroke-width="1" opacity="1" d="M 45.5 37 L 48.5 39 L 50 38.5 L 47.5 40 L 45.5 37 Z "></path><path fill="rgb(175,152,152)" stroke="rgb(175,152,152)" stroke-width="1" opacity="1" d="M 113.5 37 L 112.5 39 L 113.5 37 Z "></path><path fill="rgb(175,152,152)" stroke="rgb(175,152,152)" stroke-width="1" opacity="1" d="M 193.5 38 L 194 42.5 L 192 43.5 L 193.5 38 Z "></path><path fill="rgb(175,152,152)" stroke="rgb(175,152,152)" stroke-width="1" opacity="1" d="M 201.5 38 L 198.5 42 L 201.5 38 Z "></path><path fill="rgb(175,152,152)" stroke="rgb(175,152,152)" stroke-width="1" opacity="1" d="M 74.5 39 L 73.5 41 L 74.5 39 Z "></path><path fill="rgb(175,152,152)" stroke="rgb(175,152,152)" stroke-width="1" opacity="1" d="M 87.5 42 L 88.5 44 L 87.5 42 Z "></path><path fill="rgb(175,152,152)" stroke="rgb(175,152,152)" stroke-width="1" opacity="1" d="M 213.5 42 L 214.5 44 L 213.5 42 Z "></path><path fill="rgb(175,152,152)" stroke="rgb(175,152,152)" stroke-width="1" opacity="1" d="M 114.5 43 L 112.5 46 L 114.5 43 Z "></path><path fill="rgb(175,152,152)" stroke="rgb(175,152,152)" stroke-width="1" opacity="1" d="M 80.5 45 L 90 45.5 L 80.5 46 L 80.5 45 Z "></path><path fill="rgb(175,152,152)" stroke="rgb(175,152,152)" stroke-width="1" opacity="1" d="M 31.5 46 L 32 61.5 L 30.5 63 L 22.5 63 L 22.5 62 L 31 62 L 31.5 46 Z "></path><path fill="rgb(175,152,152)" stroke="rgb(175,152,152)" stroke-width="1" opacity="1" d="M 57.5 46 L 58 62 L 65 62.5 L 58.5 63 L 57 61.5 L 57.5 46 Z "></path><path fill="rgb(175,152,152)" stroke="rgb(175,152,152)" stroke-width="1" opacity="1" d="M 98.5 46 L 99 50.5 L 98 50.5 L 98.5 46 Z "></path><path fill="rgb(175,152,152)" stroke="rgb(175,152,152)" stroke-width="1" opacity="1" d="M 226.5 46 L 227 48.5 L 226 48.5 L 226.5 46 Z "></path><path fill="rgb(175,152,152)" stroke="rgb(175,152,152)" stroke-width="1" opacity="1" d="M 121.5 47 L 122 62 L 129 62.5 L 122.5 63 L 121 61.5 L 121.5 47 Z "></path><path fill="rgb(175,152,152)" stroke="rgb(175,152,152)" stroke-width="1" opacity="1" d="M 169.5 51 L 172 51.5 L 169.5 52 L 169.5 51 Z "></path><path fill="rgb(175,152,152)" stroke="rgb(175,152,152)" stroke-width="1" opacity="1" d="M 80.5 53 L 81.5 55 L 80.5 53 Z "></path><path fill="rgb(175,152,152)" stroke="rgb(175,152,152)" stroke-width="1" opacity="1" d="M 149.5 54 L 150.5 55 L 159.5 55 L 161 56.5 Q 162.3 61.8 159.5 63 L 135 62.5 L 160 62 L 160 56 L 149.5 56 L 149.5 54 Z "></path><path fill="rgb(175,152,152)" stroke="rgb(175,152,152)" stroke-width="1" opacity="1" d="M 164.5 56 L 165 58.5 L 164 58.5 L 164.5 56 Z "></path><path fill="rgb(175,152,152)" stroke="rgb(175,152,152)" stroke-width="1" opacity="1" d="M 73.5 58 L 74.5 60 L 73.5 58 Z "></path><path fill="rgb(175,152,152)" stroke="rgb(175,152,152)" stroke-width="1" opacity="1" d="M 40.5 62 L 49 62.5 L 40.5 63 L 40.5 62 Z "></path><path fill="rgb(175,152,152)" stroke="rgb(175,152,152)" stroke-width="1" opacity="1" d="M 83.5 63 L 87 63.5 L 83.5 64 L 83.5 63 Z "></path><path fill="rgb(255,51,51)" stroke="rgb(255,51,51)" stroke-width="1" opacity="1" d="M 179 27 L 188 27 L 188 37 L 193.5 37 L 193 38.5 L 193 43 L 188 43.5 L 188 53.5 Q 189.2 56 193 55 L 194 62 Q 191.3 63.9 184.5 63 L 181 61 Q 177.7 54.5 179 43 L 176 43 L 176 37 L 179 36.5 L 179 27 Z "></path><path fill="rgb(255,51,51)" stroke="rgb(255,51,51)" stroke-width="1" opacity="1" d="M 206.5 36 Q 218.7 34.3 222 41.5 L 224 51 L 205.5 51 L 205 52.5 L 206 55 Q 208.4 56.8 214.5 56 L 218.5 54 L 223 56 L 219.5 61 Q 215.1 64.1 206.5 63 L 199 58.5 Q 195 55 196 46.5 Q 197.6 39.6 203.5 37 L 206.5 36 Z M 210 41 L 208 42 L 205 46 L 215 46 L 215 44 L 210 41 Z "></path><path fill="rgb(255,51,51)" stroke="rgb(255,51,51)" stroke-width="1" opacity="1" d="M 237.5 36 Q 245.8 34.8 249 38.5 L 247 44 L 240.5 43 L 236 46.5 Q 234.5 54.5 239.5 56 Q 244.9 56.6 247 55 L 249 60.5 Q 245.8 64.3 237.5 63 Q 231 61.5 228 56.5 L 226 49.5 L 227 44.5 L 232.5 38 L 237.5 36 Z "></path><path fill="rgb(0,0,0)" stroke="rgb(0,0,0)" stroke-width="1" opacity="1" d="M 38.5 36 L 47 39 Q 45.9 41.7 48.5 41 L 52.5 37 L 57.5 36 L 61.5 37 L 65 40.5 L 66 42.5 L 66 61.5 L 65 61.5 L 64.5 43 L 64 60 L 59 60 L 59 61.5 L 58 61.5 L 58 45.5 L 57 43 L 51.5 42 L 48 46.5 L 48 62 L 41 62 L 41 47.5 L 38.5 43 L 34.5 42 L 31 44.5 L 31 61.5 Q 30.9 62.6 25.5 62 L 25.5 61 L 30 60.5 L 25 60 L 25 39.5 Q 25 38.5 29.5 39 L 31.5 40 L 38.5 36 Z M 43 60 L 43 61 L 47 61 L 43 60 Z "></path><path fill="rgb(0,0,0)" stroke="rgb(0,0,0)" stroke-width="1" opacity="1" d="M 83.5 36 L 90.5 37 L 96 41.5 L 98 49.5 L 97 49.5 L 96.5 47 L 96 50 L 79.5 50 L 79 52.5 L 81.5 56 L 87.5 57 L 92.5 54 L 97 56 L 94.5 60 L 90.5 62 L 83.5 63 Q 75.4 61.6 72 55.5 L 71 46.5 Q 72.4 40.4 77.5 38 L 83.5 36 Z M 84 39 L 84 40 L 86 40 L 84 39 Z M 83 41 L 79 46 L 90 46 L 90 44 Q 89 40 83 41 Z M 73 46 L 72 53 L 73 53 L 73 46 Z "></path><path fill="rgb(0,0,0)" stroke="rgb(0,0,0)" stroke-width="1" opacity="1" d="M 118.5 36 L 124.5 37 L 129 40.5 L 130 43.5 L 130 61.5 L 129 61.5 L 128.5 43 L 128 60 L 124 59.5 L 124 46.5 L 123 46.5 L 122.5 62 L 122 45.5 L 118.5 42 Q 113.4 41.4 112 44.5 L 111 46.5 L 110.5 62 L 109.5 47 L 109 60 L 104 60.5 L 109 61.5 L 103 62 L 103 37.5 Q 103.1 36.4 108.5 37 L 108.5 38 L 104 38.5 L 110 39 L 110.5 37 L 111 40 L 113 40 Q 111.9 37.3 114.5 38 L 118.5 36 Z "></path><path fill="rgb(0,0,0)" stroke="rgb(0,0,0)" stroke-width="1" opacity="1" d="M 23.5 37 L 24 61.5 L 23 61.5 L 23.5 37 Z "></path><path fill="rgb(0,0,0)" stroke="rgb(0,0,0)" stroke-width="1" opacity="1" d="M 25.5 37 L 31 37.5 L 25.5 38 L 25.5 37 Z "></path><path fill="rgb(0,0,0)" stroke="rgb(0,0,0)" stroke-width="1" opacity="1" d="M 136.5 37 L 137 42.5 L 136 42.5 L 136.5 37 Z "></path><path fill="rgb(0,0,0)" stroke="rgb(0,0,0)" stroke-width="1" opacity="1" d="M 138.5 37 L 157.5 37 L 158.5 38 L 160 37.5 L 148 56 L 160 56 L 160 62 L 135.5 62 L 135 60.5 L 147 43.5 L 138 43 L 138.5 39 L 157.5 39 L 157.5 38 L 138.5 38 L 138.5 37 Z M 138 59 L 137 61 L 159 61 L 139 60 L 138 59 Z "></path><path fill="rgb(0,0,0)" stroke="rgb(0,0,0)" stroke-width="1" opacity="1" d="M 169.5 52 L 175 54.5 L 176 57.5 L 173.5 62 L 170.5 63 L 166 60.5 L 165 56.5 L 167.5 53 L 169.5 52 Z "></path><path fill="rgb(0,0,0)" stroke="rgb(0,0,0)" stroke-width="1" opacity="1" d="M 60.5 61 L 64 61.5 L 60.5 62 L 60.5 61 Z "></path><path fill="rgb(0,0,0)" stroke="rgb(0,0,0)" stroke-width="1" opacity="1" d="M 124.5 61 L 128 61.5 L 124.5 62 L 124.5 61 Z "></path><path fill="rgb(82,82,82)" stroke="rgb(82,82,82)" stroke-width="1" opacity="1" d="M 22.5 37 L 23 61.5 L 22 61.5 L 22.5 37 Z "></path><path fill="rgb(82,82,82)" stroke="rgb(82,82,82)" stroke-width="1" opacity="1" d="M 93.5 38 L 95.5 41 L 93.5 38 Z "></path><path fill="rgb(82,82,82)" stroke="rgb(82,82,82)" stroke-width="1" opacity="1" d="M 127.5 38 L 128.5 40 L 127.5 38 Z "></path><path fill="rgb(82,82,82)" stroke="rgb(82,82,82)" stroke-width="1" opacity="1" d="M 83.5 41 L 87 41.5 L 83.5 42 L 83.5 41 Z "></path><path fill="rgb(82,82,82)" stroke="rgb(82,82,82)" stroke-width="1" opacity="1" d="M 81.5 42 L 80.5 44 L 81.5 42 Z "></path><path fill="rgb(82,82,82)" stroke="rgb(82,82,82)" stroke-width="1" opacity="1" d="M 50.5 43 L 49.5 45 L 50.5 43 Z "></path><path fill="rgb(82,82,82)" stroke="rgb(82,82,82)" stroke-width="1" opacity="1" d="M 119.5 43 L 120.5 45 L 119.5 43 Z "></path><path fill="rgb(82,82,82)" stroke="rgb(82,82,82)" stroke-width="1" opacity="1" d="M 66.5 44 L 67 61.5 L 65 62.5 L 66 61.5 L 66.5 44 Z "></path><path fill="rgb(82,82,82)" stroke="rgb(82,82,82)" stroke-width="1" opacity="1" d="M 130.5 45 L 131 61.5 L 129 62.5 L 130 61.5 L 130.5 45 Z "></path><path fill="rgb(82,82,82)" stroke="rgb(82,82,82)" stroke-width="1" opacity="1" d="M 111.5 46 L 112 61.5 L 110 62.5 L 111 61.5 L 111.5 46 Z "></path><path fill="rgb(82,82,82)" stroke="rgb(82,82,82)" stroke-width="1" opacity="1" d="M 144.5 46 L 143.5 48 L 144.5 46 Z "></path><path fill="rgb(82,82,82)" stroke="rgb(82,82,82)" stroke-width="1" opacity="1" d="M 154.5 46 L 153.5 48 L 154.5 46 Z "></path><path fill="rgb(82,82,82)" stroke="rgb(82,82,82)" stroke-width="1" opacity="1" d="M 70.5 47 L 71 51.5 L 70 51.5 L 70.5 47 Z "></path><path fill="rgb(82,82,82)" stroke="rgb(82,82,82)" stroke-width="1" opacity="1" d="M 142.5 49 L 141.5 51 L 142.5 49 Z "></path><path fill="rgb(82,82,82)" stroke="rgb(82,82,82)" stroke-width="1" opacity="1" d="M 152.5 49 L 151.5 51 L 152.5 49 Z "></path><path fill="rgb(82,82,82)" stroke="rgb(82,82,82)" stroke-width="1" opacity="1" d="M 80.5 50 L 98 50.5 L 80 51 L 79.5 53 L 79 51.5 L 80.5 50 Z "></path><path fill="rgb(82,82,82)" stroke="rgb(82,82,82)" stroke-width="1" opacity="1" d="M 140.5 52 L 139.5 54 L 140.5 52 Z "></path><path fill="rgb(82,82,82)" stroke="rgb(82,82,82)" stroke-width="1" opacity="1" d="M 150.5 52 L 149.5 54 L 150.5 52 Z "></path><path fill="rgb(82,82,82)" stroke="rgb(82,82,82)" stroke-width="1" opacity="1" d="M 91.5 53 L 90.5 55 L 91.5 53 Z "></path><path fill="rgb(82,82,82)" stroke="rgb(82,82,82)" stroke-width="1" opacity="1" d="M 96.5 58 L 95.5 60 L 96.5 58 Z "></path></svg></svg></g></g><defs><clipPath id="SvgjsClipPath1220"><rect width="1000" height="1000" x="0" y="0" rx="250" ry="250"></rect></clipPath></defs></svg></g><g id="dark-icon"><svg xmlns="http://www.w3.org/2000/svg" version="1.1" xmlns:xlink="http://www.w3.org/1999/xlink" width="1000" height="1000"><g clip-path="url(#SvgjsClipPath1221)"><rect width="1000" height="1000" fill="#ffffff"></rect><g transform="matrix(3.0821917808219177,0,0,3.0821917808219177,50,348.972602739726)"><svg xmlns="http://www.w3.org/2000/svg" version="1.1" xmlns:xlink="http://www.w3.org/1999/xlink" width="292" height="98"><svg width="292" height="98" version="1.1" xmlns="http://www.w3.org/2000/svg" desc="Created with imagetracer.js version 1.2.6"><path fill="rgb(251,244,244)" stroke="rgb(251,244,244)" stroke-width="1" opacity="1" d="M 179.5 26 L 189 26 L 189 35.5 L 188 35.5 L 188 27 L 179.5 27 L 179.5 26 Z "></path><path fill="rgb(251,244,244)" stroke="rgb(251,244,244)" stroke-width="1" opacity="1" d="M 207.5 35 L 214 35.5 L 207.5 36 L 207.5 35 Z "></path><path fill="rgb(251,244,244)" stroke="rgb(251,244,244)" stroke-width="1" opacity="1" d="M 238.5 35 L 244 35.5 L 238.5 36 L 238.5 35 Z "></path><path fill="rgb(251,244,244)" stroke="rgb(251,244,244)" stroke-width="1" opacity="1" d="M 63.5 37 L 65.5 40 L 63.5 37 Z "></path><path fill="rgb(251,244,244)" stroke="rgb(251,244,244)" stroke-width="1" opacity="1" d="M 76.5 37 L 75.5 39 L 76.5 37 Z "></path><path fill="rgb(251,244,244)" stroke="rgb(251,244,244)" stroke-width="1" opacity="1" d="M 133.5 37 L 134 42.5 L 133 42.5 L 133.5 37 Z "></path><path fill="rgb(251,244,244)" stroke="rgb(251,244,244)" stroke-width="1" opacity="1" d="M 218.5 37 L 222.5 42 L 218.5 37 Z "></path><path fill="rgb(251,244,244)" stroke="rgb(251,244,244)" stroke-width="1" opacity="1" d="M 94.5 38 L 95.5 40 L 94.5 38 Z "></path><path fill="rgb(251,244,244)" stroke="rgb(251,244,244)" stroke-width="1" opacity="1" d="M 231.5 38 L 228.5 42 L 231.5 38 Z "></path><path fill="rgb(251,244,244)" stroke="rgb(251,244,244)" stroke-width="1" opacity="1" d="M 207.5 42 L 206.5 44 L 207.5 42 Z "></path><path fill="rgb(251,244,244)" stroke="rgb(251,244,244)" stroke-width="1" opacity="1" d="M 34.5 43 L 37 43.5 L 34.5 44 L 34.5 43 Z "></path><path fill="rgb(251,244,244)" stroke="rgb(251,244,244)" stroke-width="1" opacity="1" d="M 52.5 43 L 55 43.5 L 52.5 44 L 52.5 43 Z "></path><path fill="rgb(251,244,244)" stroke="rgb(251,244,244)" stroke-width="1" opacity="1" d="M 189.5 43 L 189 44.5 L 188.5 53 L 188 44.5 L 189.5 43 Z "></path><path fill="rgb(251,244,244)" stroke="rgb(251,244,244)" stroke-width="1" opacity="1" d="M 240.5 43 L 244 43.5 L 240.5 44 L 240.5 43 Z "></path><path fill="rgb(251,244,244)" stroke="rgb(251,244,244)" stroke-width="1" opacity="1" d="M 32.5 44 L 33.5 46 L 32.5 44 Z "></path><path fill="rgb(251,244,244)" stroke="rgb(251,244,244)" stroke-width="1" opacity="1" d="M 38.5 44 L 37.5 46 L 38.5 44 Z "></path><path fill="rgb(251,244,244)" stroke="rgb(251,244,244)" stroke-width="1" opacity="1" d="M 50.5 44 L 51.5 46 L 50.5 44 Z "></path><path fill="rgb(251,244,244)" stroke="rgb(251,244,244)" stroke-width="1" opacity="1" d="M 214.5 44 L 215 46 L 206 45.5 L 214.5 44 Z "></path><path fill="rgb(251,244,244)" stroke="rgb(251,244,244)" stroke-width="1" opacity="1" d="M 238.5 44 L 237.5 46 L 238.5 44 Z "></path><path fill="rgb(251,244,244)" stroke="rgb(251,244,244)" stroke-width="1" opacity="1" d="M 100.5 45 L 101 50.5 L 100 50.5 L 100.5 45 Z "></path><path fill="rgb(251,244,244)" stroke="rgb(251,244,244)" stroke-width="1" opacity="1" d="M 142.5 45 L 143.5 47 L 142.5 45 Z "></path><path fill="rgb(251,244,244)" stroke="rgb(251,244,244)" stroke-width="1" opacity="1" d="M 49.5 46 L 50 62.5 L 49 62.5 L 49.5 46 Z "></path><path fill="rgb(251,244,244)" stroke="rgb(251,244,244)" stroke-width="1" opacity="1" d="M 68.5 46 L 69 48.5 L 68 48.5 L 68.5 46 Z "></path><path fill="rgb(251,244,244)" stroke="rgb(251,244,244)" stroke-width="1" opacity="1" d="M 39.5 47 L 40 62.5 L 39 62.5 L 39.5 47 Z "></path><path fill="rgb(251,244,244)" stroke="rgb(251,244,244)" stroke-width="1" opacity="1" d="M 195.5 47 L 196 51.5 L 195 51.5 L 195.5 47 Z "></path><path fill="rgb(251,244,244)" stroke="rgb(251,244,244)" stroke-width="1" opacity="1" d="M 224.5 47 L 225 50.5 L 224 50.5 L 224.5 47 Z "></path><path fill="rgb(251,244,244)" stroke="rgb(251,244,244)" stroke-width="1" opacity="1" d="M 68.5 51 L 69 53.5 L 68 53.5 L 68.5 51 Z "></path><path fill="rgb(251,244,244)" stroke="rgb(251,244,244)" stroke-width="1" opacity="1" d="M 166.5 52 L 165.5 54 L 166.5 52 Z "></path><path fill="rgb(251,244,244)" stroke="rgb(251,244,244)" stroke-width="1" opacity="1" d="M 90.5 53 L 89.5 55 L 90.5 53 Z "></path><path fill="rgb(251,244,244)" stroke="rgb(251,244,244)" stroke-width="1" opacity="1" d="M 216.5 53 L 215.5 55 L 216.5 53 Z "></path><path fill="rgb(251,244,244)" stroke="rgb(251,244,244)" stroke-width="1" opacity="1" d="M 237.5 53 L 238.5 55 L 237.5 53 Z "></path><path fill="rgb(251,244,244)" stroke="rgb(251,244,244)" stroke-width="1" opacity="1" d="M 83.5 55 L 88 55.5 L 83.5 56 L 83.5 55 Z "></path><path fill="rgb(251,244,244)" stroke="rgb(251,244,244)" stroke-width="1" opacity="1" d="M 208.5 55 L 214 55.5 L 208.5 56 L 208.5 55 Z "></path><path fill="rgb(251,244,244)" stroke="rgb(251,244,244)" stroke-width="1" opacity="1" d="M 222.5 55 L 224 57.5 L 220 60.5 L 223 56.5 L 222.5 55 Z "></path><path fill="rgb(251,244,244)" stroke="rgb(251,244,244)" stroke-width="1" opacity="1" d="M 240.5 55 L 244 55.5 L 240.5 56 L 240.5 55 Z "></path><path fill="rgb(251,244,244)" stroke="rgb(251,244,244)" stroke-width="1" opacity="1" d="M 162.5 56 L 163 58.5 L 162 58.5 L 162.5 56 Z "></path><path fill="rgb(251,244,244)" stroke="rgb(251,244,244)" stroke-width="1" opacity="1" d="M 228.5 57 L 231.5 61 L 228.5 57 Z "></path><path fill="rgb(251,244,244)" stroke="rgb(251,244,244)" stroke-width="1" opacity="1" d="M 75.5 60 L 76.5 62 L 75.5 60 Z "></path><path fill="rgb(251,244,244)" stroke="rgb(251,244,244)" stroke-width="1" opacity="1" d="M 132.5 60 L 133.5 62 L 132.5 60 Z "></path><path fill="rgb(251,244,244)" stroke="rgb(251,244,244)" stroke-width="1" opacity="1" d="M 233.5 61 L 236 62.5 L 234.5 63 L 233.5 61 Z "></path><path fill="rgb(251,244,244)" stroke="rgb(251,244,244)" stroke-width="1" opacity="1" d="M 185.5 63 L 191 63.5 L 185.5 64 L 185.5 63 Z "></path><path fill="rgb(251,244,244)" stroke="rgb(251,244,244)" stroke-width="1" opacity="1" d="M 207.5 63 L 214 63.5 L 207.5 64 L 207.5 63 Z "></path><path fill="rgb(251,244,244)" stroke="rgb(251,244,244)" stroke-width="1" opacity="1" d="M 237.5 63 L 244 63.5 L 237.5 64 L 237.5 63 Z "></path><path fill="rgb(254,255,255)" stroke="rgb(254,255,255)" stroke-width="1" opacity="1" d="M 37.5 33 L 41 33.5 L 37.5 34 L 37.5 33 Z "></path><path fill="rgb(254,255,255)" stroke="rgb(254,255,255)" stroke-width="1" opacity="1" d="M 55.5 33 L 58 33.5 L 55.5 34 L 55.5 33 Z "></path><path fill="rgb(254,255,255)" stroke="rgb(254,255,255)" stroke-width="1" opacity="1" d="M 82.5 33 L 87 33.5 L 82.5 34 L 82.5 33 Z "></path><path fill="rgb(254,255,255)" stroke="rgb(254,255,255)" stroke-width="1" opacity="1" d="M 117.5 33 L 121 33.5 L 117.5 34 L 117.5 33 Z "></path><path fill="rgb(254,255,255)" stroke="rgb(254,255,255)" stroke-width="1" opacity="1" d="M 22.5 34 L 32 34.5 L 22.5 35 L 22.5 34 Z "></path><path fill="rgb(254,255,255)" stroke="rgb(254,255,255)" stroke-width="1" opacity="1" d="M 34.5 34 L 36 34.5 L 33.5 36 L 34.5 34 Z "></path><path fill="rgb(254,255,255)" stroke="rgb(254,255,255)" stroke-width="1" opacity="1" d="M 42.5 34 L 48.5 37 L 53.5 34 L 53.5 35 Q 51.3 34.3 52 36.5 Q 50.3 34.9 48.5 38 L 42.5 35 L 42.5 34 Z "></path><path fill="rgb(254,255,255)" stroke="rgb(254,255,255)" stroke-width="1" opacity="1" d="M 60.5 34 L 68 39.5 L 69.5 43 L 75.5 36 L 77.5 35 L 76.5 37 L 71 41.5 L 68.5 46 Q 68.7 39.3 64.5 37 Q 59.8 36.2 60.5 34 Z "></path><path fill="rgb(254,255,255)" stroke="rgb(254,255,255)" stroke-width="1" opacity="1" d="M 89.5 34 L 98 39.5 L 99.5 42 L 100.5 36 L 101 44.5 L 99 43.5 L 95.5 38 L 92.5 36 L 91 36.5 Q 91.8 34.3 89.5 35 L 88 35.5 L 89.5 34 Z "></path><path fill="rgb(254,255,255)" stroke="rgb(254,255,255)" stroke-width="1" opacity="1" d="M 102.5 34 L 112 34.5 L 102.5 35 L 102.5 34 Z "></path><path fill="rgb(254,255,255)" stroke="rgb(254,255,255)" stroke-width="1" opacity="1" d="M 114.5 34 L 117 35.5 L 114.5 36 L 113 35.5 L 114.5 34 Z "></path><path fill="rgb(254,255,255)" stroke="rgb(254,255,255)" stroke-width="1" opacity="1" d="M 123.5 34 Q 130.4 35.6 133 41.5 L 134 43.5 L 133 44.5 L 133 57.5 L 135 56.5 L 141 46 L 135 45.5 L 142 45 L 142 47.5 L 134 60 L 132 59.5 L 132 41.5 L 126.5 36 L 125 36.5 Q 125.8 34.3 123.5 35 L 123.5 34 Z "></path><path fill="rgb(254,255,255)" stroke="rgb(254,255,255)" stroke-width="1" opacity="1" d="M 135.5 34 L 162 34.5 L 135.5 35 L 135.5 34 Z "></path><path fill="rgb(254,255,255)" stroke="rgb(254,255,255)" stroke-width="1" opacity="1" d="M 20.5 36 L 21 62.5 L 20 62.5 L 20.5 36 Z "></path><path fill="rgb(254,255,255)" stroke="rgb(254,255,255)" stroke-width="1" opacity="1" d="M 163.5 36 L 164 37.5 L 153 52.5 L 161 53.5 L 152.5 54 L 151.5 55 L 151 53.5 L 163.5 36 Z "></path><path fill="rgb(254,255,255)" stroke="rgb(254,255,255)" stroke-width="1" opacity="1" d="M 84.5 42 L 88 44.5 L 86.5 44 L 82.5 45 L 82 43 L 84.5 42 Z "></path><path fill="rgb(254,255,255)" stroke="rgb(254,255,255)" stroke-width="1" opacity="1" d="M 116.5 43 L 119 44.5 L 120 46.5 L 120 62.5 L 119 62.5 L 119 46.5 L 118 44 L 115.5 45 L 116.5 43 Z "></path><path fill="rgb(254,255,255)" stroke="rgb(254,255,255)" stroke-width="1" opacity="1" d="M 34.5 44 L 35 45.5 L 34 46.5 L 33.5 63 L 33 46.5 L 34.5 44 Z "></path><path fill="rgb(254,255,255)" stroke="rgb(254,255,255)" stroke-width="1" opacity="1" d="M 36.5 44 L 38 46.5 L 38 62.5 L 37 62.5 L 37 46.5 L 36.5 44 Z "></path><path fill="rgb(254,255,255)" stroke="rgb(254,255,255)" stroke-width="1" opacity="1" d="M 54.5 44 L 57 45.5 L 56 46.5 L 55.5 63 L 55 46.5 L 54.5 44 Z "></path><path fill="rgb(254,255,255)" stroke="rgb(254,255,255)" stroke-width="1" opacity="1" d="M 51.5 46 L 52 61.5 L 51 61.5 L 51.5 46 Z "></path><path fill="rgb(254,255,255)" stroke="rgb(254,255,255)" stroke-width="1" opacity="1" d="M 113.5 47 L 114 62.5 L 113 62.5 L 113.5 47 Z "></path><path fill="rgb(254,255,255)" stroke="rgb(254,255,255)" stroke-width="1" opacity="1" d="M 168.5 49 L 172 49.5 Q 167.8 49.3 166.5 52 L 168.5 49 Z "></path><path fill="rgb(254,255,255)" stroke="rgb(254,255,255)" stroke-width="1" opacity="1" d="M 173.5 50 L 175 52.5 L 174 52.5 L 173.5 50 Z "></path><path fill="rgb(254,255,255)" stroke="rgb(254,255,255)" stroke-width="1" opacity="1" d="M 81.5 51 L 84 54.5 L 83 54.5 L 81.5 51 Z "></path><path fill="rgb(254,255,255)" stroke="rgb(254,255,255)" stroke-width="1" opacity="1" d="M 91.5 51 L 90.5 53 L 87.5 55 L 87 53 L 91.5 51 Z "></path><path fill="rgb(254,255,255)" stroke="rgb(254,255,255)" stroke-width="1" opacity="1" d="M 100.5 51 L 101 62.5 L 100 62.5 L 99.5 58 L 98 61 L 89.5 65 L 89.5 64 Q 96.7 62.2 100 56.5 L 100.5 51 Z "></path><path fill="rgb(254,255,255)" stroke="rgb(254,255,255)" stroke-width="1" opacity="1" d="M 93 52 L 97 53.5 L 95 54.5 L 94.5 53 L 93 53.5 L 93 52 Z "></path><path fill="rgb(254,255,255)" stroke="rgb(254,255,255)" stroke-width="1" opacity="1" d="M 164.5 52 L 164 53.5 L 162.5 56 L 163 54.5 L 164.5 52 Z "></path><path fill="rgb(254,255,255)" stroke="rgb(254,255,255)" stroke-width="1" opacity="1" d="M 68.5 54 L 75.5 62 L 78 63.5 L 76.5 63 L 69.5 57 L 68.5 63 L 68.5 54 Z "></path><path fill="rgb(254,255,255)" stroke="rgb(254,255,255)" stroke-width="1" opacity="1" d="M 177.5 54 Q 180 55 179 59.5 L 176 61.5 Q 179 60.5 178 55.5 L 177.5 54 Z "></path><path fill="rgb(254,255,255)" stroke="rgb(254,255,255)" stroke-width="1" opacity="1" d="M 162.5 59 Q 165.3 60.3 163 61.5 L 162.5 63 L 162.5 59 Z "></path><path fill="rgb(254,255,255)" stroke="rgb(254,255,255)" stroke-width="1" opacity="1" d="M 166.5 62 L 168 64.5 L 166 63.5 L 166.5 62 Z "></path><path fill="rgb(254,255,255)" stroke="rgb(254,255,255)" stroke-width="1" opacity="1" d="M 174.5 63 L 173.5 65 L 174.5 63 Z "></path><path fill="rgb(254,255,255)" stroke="rgb(254,255,255)" stroke-width="1" opacity="1" d="M 22.5 64 L 32 64.5 L 22.5 65 L 22.5 64 Z "></path><path fill="rgb(254,255,255)" stroke="rgb(254,255,255)" stroke-width="1" opacity="1" d="M 40.5 64 L 49 64.5 L 40.5 65 L 40.5 64 Z "></path><path fill="rgb(254,255,255)" stroke="rgb(254,255,255)" stroke-width="1" opacity="1" d="M 57.5 64 L 67 64.5 L 57.5 65 L 57.5 64 Z "></path><path fill="rgb(254,255,255)" stroke="rgb(254,255,255)" stroke-width="1" opacity="1" d="M 102.5 64 L 112 64.5 L 102.5 65 L 102.5 64 Z "></path><path fill="rgb(254,255,255)" stroke="rgb(254,255,255)" stroke-width="1" opacity="1" d="M 121.5 64 L 131 64.5 L 121.5 65 L 121.5 64 Z "></path><path fill="rgb(254,255,255)" stroke="rgb(254,255,255)" stroke-width="1" opacity="1" d="M 133.5 64 L 161 64.5 L 133.5 65 L 133.5 64 Z "></path><path fill="rgb(254,255,255)" stroke="rgb(254,255,255)" stroke-width="1" opacity="1" d="M 82.5 65 L 87 65.5 L 82.5 66 L 82.5 65 Z "></path><path fill="rgb(254,255,255)" stroke="rgb(254,255,255)" stroke-width="1" opacity="1" d="M 169.5 65 L 172 65.5 L 169.5 66 L 169.5 65 Z "></path><path fill="rgb(255,255,255)" stroke="rgb(255,255,255)" stroke-width="1" opacity="1" d="M 0 0 L 292 0 L 292 98 L 0 98 L 0 0 Z M 179 26 L 179 36 L 175 36 L 175 44 L 179 44 L 179 55 L 178 56 L 179 60 L 180 58 L 181 62 L 186 64 Q 192 65 195 62 L 193 56 Q 194 53 192 54 Q 190 56 189 54 L 189 44 L 194 44 L 194 36 L 189 36 L 189 26 L 179 26 Z M 38 33 L 38 34 L 41 34 L 38 33 Z M 56 33 L 56 34 L 58 34 L 56 33 Z M 83 33 L 83 34 L 87 34 L 83 33 Z M 118 33 L 118 34 L 121 34 L 118 33 Z M 23 34 L 23 35 L 32 35 L 23 34 Z M 103 34 L 103 35 L 112 35 L 103 34 Z M 115 34 Q 112 35 114 37 L 112 38 L 112 36 L 102 36 L 102 63 L 112 63 L 112 48 L 113 46 Q 114 43 116 45 L 118 44 L 119 46 L 120 44 L 121 47 L 121 63 L 131 63 L 131 43 L 130 41 Q 125 38 127 35 L 125 36 L 123 35 Q 117 34 116 36 L 116 35 L 115 34 Z M 136 34 L 136 35 L 162 35 L 136 34 Z M 37 35 L 35 36 L 32 38 L 32 36 L 22 36 L 22 63 L 32 63 L 32 46 L 34 44 L 33 46 L 34 63 L 34 47 L 36 44 L 37 47 L 38 63 L 38 46 L 38 44 L 39 46 L 39 63 L 50 63 L 50 46 L 54 44 L 55 47 L 56 63 L 56 47 L 57 47 L 57 63 L 67 63 L 67 42 L 66 40 Q 62 38 65 37 L 63 35 L 63 37 L 60 35 Q 55 34 54 36 L 51 35 L 51 37 L 48 39 Q 44 37 46 35 L 44 36 L 37 35 Z M 82 35 L 78 37 L 76 36 L 76 38 L 70 46 Q 69 54 72 58 Q 77 60 76 63 L 78 62 L 82 64 Q 89 65 93 62 L 92 64 L 94 64 Q 96 63 94 62 L 98 58 Q 99 54 97 55 L 97 53 L 95 54 L 95 52 L 93 53 L 90 52 L 89 55 L 89 53 Q 86 52 87 55 L 84 55 L 83 52 L 82 54 L 83 55 L 80 52 L 83 51 L 91 51 L 92 52 L 93 51 L 99 51 Q 100 43 96 40 L 96 37 L 94 38 L 93 35 L 91 36 L 82 35 Z M 208 35 L 203 37 Q 197 40 195 48 Q 195 56 199 60 L 208 64 Q 216 65 221 61 L 224 57 L 219 53 L 215 55 Q 208 57 206 54 L 207 51 L 225 51 L 223 42 Q 219 34 208 35 Z M 239 35 L 232 38 L 226 46 Q 225 54 228 58 L 238 64 L 244 64 L 250 62 L 247 54 Q 245 56 240 55 L 236 51 Q 236 46 240 44 Q 245 43 247 45 L 250 39 L 248 36 L 239 35 Z M 21 36 L 20 63 L 21 63 L 21 36 Z M 101 36 L 99 43 L 100 45 L 100 57 L 99 58 L 100 63 L 101 63 L 101 36 Z M 134 36 L 132 42 L 132 61 L 134 60 L 133 58 L 133 45 L 134 44 L 134 36 Z M 135 36 L 135 44 L 143 44 L 145 45 L 133 63 L 161 63 L 161 63 L 161 55 L 152 55 L 161 54 L 154 53 L 151 53 L 162 37 L 135 36 Z M 164 36 L 162 39 L 164 38 L 164 36 Z M 69 41 L 69 63 L 69 58 L 71 58 L 69 55 L 69 46 L 70 45 L 69 41 Z M 52 45 L 51 62 L 52 62 L 52 45 Z M 136 45 L 136 46 L 141 46 L 142 48 L 143 46 L 136 45 Z M 120 46 L 119 63 L 120 63 L 120 46 Z M 114 47 L 113 63 L 114 63 L 114 47 Z M 169 49 L 169 50 L 172 50 L 169 49 Z M 167 51 L 164 56 L 164 60 L 166 64 L 169 64 L 173 64 L 177 60 L 177 56 L 175 52 L 174 52 L 169 51 L 167 51 Z M 163 55 L 163 63 L 164 61 L 163 55 Z M 98 59 L 96 61 L 98 61 L 98 59 Z M 23 64 L 23 65 L 32 65 L 23 64 Z M 41 64 L 41 65 L 49 65 L 41 64 Z M 58 64 L 58 65 L 67 65 L 58 64 Z M 90 64 L 90 65 L 92 65 L 90 64 Z M 103 64 L 103 65 L 112 65 L 103 64 Z M 122 64 L 122 65 L 131 65 L 122 64 Z M 134 64 L 134 65 L 161 65 L 134 64 Z M 83 65 L 83 66 L 87 66 L 83 65 Z M 170 65 L 170 66 L 172 66 L 170 65 Z "></path><path fill="rgb(255,255,255)" stroke="rgb(255,255,255)" stroke-width="1" opacity="1" d="M 85.5 42 L 89 44.5 L 86.5 45 L 83 44.5 L 87 43.5 L 85.5 42 Z "></path><path fill="rgb(255,255,255)" stroke="rgb(255,255,255)" stroke-width="1" opacity="1" d="M 208.5 42 L 214 43 L 213.5 45 L 206.5 45 L 208.5 42 Z "></path><path fill="rgb(5,5,5)" stroke="rgb(5,5,5)" stroke-width="1" opacity="1" d="M 24.5 37 Q 25.8 39.3 30.5 38 L 32 39.5 L 30.5 40 L 25 39 L 25 59.5 Q 25 60.5 29.5 60 L 29.5 61 L 24.5 62 L 24.5 37 Z "></path><path fill="rgb(5,5,5)" stroke="rgb(5,5,5)" stroke-width="1" opacity="1" d="M 109.5 37 L 110 39 L 104 38.5 L 109.5 37 Z "></path><path fill="rgb(5,5,5)" stroke="rgb(5,5,5)" stroke-width="1" opacity="1" d="M 114.5 37 L 115.5 39 L 114.5 37 Z "></path><path fill="rgb(5,5,5)" stroke="rgb(5,5,5)" stroke-width="1" opacity="1" d="M 137.5 37 L 138.5 38 L 157.5 38 Q 158.8 35.8 160 38.5 L 157.5 39 L 138.5 39 L 138 42.5 L 137 42.5 L 137.5 37 Z "></path><path fill="rgb(5,5,5)" stroke="rgb(5,5,5)" stroke-width="1" opacity="1" d="M 50.5 38 L 52.5 38 L 54 38.5 L 51.5 40 Q 50 37.5 48.5 41 L 47 40.5 L 50.5 38 Z "></path><path fill="rgb(5,5,5)" stroke="rgb(5,5,5)" stroke-width="1" opacity="1" d="M 63.5 38 Q 66.5 39.5 63.5 41 Q 60.5 39.5 63.5 38 Z "></path><path fill="rgb(5,5,5)" stroke="rgb(5,5,5)" stroke-width="1" opacity="1" d="M 75.5 39 L 74.5 43 Q 71 41 75.5 39 Z "></path><path fill="rgb(5,5,5)" stroke="rgb(5,5,5)" stroke-width="1" opacity="1" d="M 83.5 39 L 86 39.5 L 83.5 40 L 83.5 39 Z "></path><path fill="rgb(5,5,5)" stroke="rgb(5,5,5)" stroke-width="1" opacity="1" d="M 92.5 39 L 94.5 42 L 92.5 39 Z "></path><path fill="rgb(5,5,5)" stroke="rgb(5,5,5)" stroke-width="1" opacity="1" d="M 156.5 40 L 157.5 42 L 156.5 40 Z "></path><path fill="rgb(5,5,5)" stroke="rgb(5,5,5)" stroke-width="1" opacity="1" d="M 87.5 41 L 89.5 44 L 87.5 41 Z "></path><path fill="rgb(5,5,5)" stroke="rgb(5,5,5)" stroke-width="1" opacity="1" d="M 34.5 42 L 37 42.5 L 34.5 43 L 34.5 42 Z "></path><path fill="rgb(5,5,5)" stroke="rgb(5,5,5)" stroke-width="1" opacity="1" d="M 51.5 42 L 55 42.5 L 51.5 43 L 51.5 42 Z "></path><path fill="rgb(5,5,5)" stroke="rgb(5,5,5)" stroke-width="1" opacity="1" d="M 96.5 42 L 95.5 44 L 96.5 42 Z "></path><path fill="rgb(5,5,5)" stroke="rgb(5,5,5)" stroke-width="1" opacity="1" d="M 129.5 42 L 129 43.5 L 128.5 62 L 124.5 61 L 123 61.5 L 123.5 46 L 124 60 L 128 59.5 L 128 43.5 L 129.5 42 Z "></path><path fill="rgb(5,5,5)" stroke="rgb(5,5,5)" stroke-width="1" opacity="1" d="M 32.5 43 L 31.5 45 L 32.5 43 Z "></path><path fill="rgb(5,5,5)" stroke="rgb(5,5,5)" stroke-width="1" opacity="1" d="M 38.5 43 L 39.5 45 L 38.5 43 Z "></path><path fill="rgb(5,5,5)" stroke="rgb(5,5,5)" stroke-width="1" opacity="1" d="M 64.5 43 L 65 61.5 L 63.5 61 L 59.5 62 L 59 60 L 64 59.5 L 64.5 43 Z "></path><path fill="rgb(5,5,5)" stroke="rgb(5,5,5)" stroke-width="1" opacity="1" d="M 78.5 43 L 80 45.5 L 79 45.5 L 78.5 43 Z "></path><path fill="rgb(5,5,5)" stroke="rgb(5,5,5)" stroke-width="1" opacity="1" d="M 113.5 43 L 112.5 45 L 113.5 43 Z "></path><path fill="rgb(5,5,5)" stroke="rgb(5,5,5)" stroke-width="1" opacity="1" d="M 154.5 43 L 155.5 45 L 154.5 43 Z "></path><path fill="rgb(5,5,5)" stroke="rgb(5,5,5)" stroke-width="1" opacity="1" d="M 71.5 45 Q 74.5 46.5 73 52.5 L 71 53.5 Q 73.5 52 72 46.5 L 71.5 45 Z "></path><path fill="rgb(5,5,5)" stroke="rgb(5,5,5)" stroke-width="1" opacity="1" d="M 48.5 46 L 49 61.5 L 48 61.5 L 48.5 46 Z "></path><path fill="rgb(5,5,5)" stroke="rgb(5,5,5)" stroke-width="1" opacity="1" d="M 40.5 47 L 41 61.5 L 40 61.5 L 40.5 47 Z "></path><path fill="rgb(5,5,5)" stroke="rgb(5,5,5)" stroke-width="1" opacity="1" d="M 96.5 47 L 97 49.5 L 96 49.5 L 96.5 47 Z "></path><path fill="rgb(5,5,5)" stroke="rgb(5,5,5)" stroke-width="1" opacity="1" d="M 109.5 47 L 110 61.5 L 108.5 61 L 104 60.5 L 109 60 L 109.5 47 Z "></path><path fill="rgb(5,5,5)" stroke="rgb(5,5,5)" stroke-width="1" opacity="1" d="M 80.5 54 L 81.5 56 L 80.5 54 Z "></path><path fill="rgb(5,5,5)" stroke="rgb(5,5,5)" stroke-width="1" opacity="1" d="M 138.5 55 L 139.5 57 L 138.5 55 Z "></path><path fill="rgb(5,5,5)" stroke="rgb(5,5,5)" stroke-width="1" opacity="1" d="M 74.5 56 L 75.5 60 Q 71 58 74.5 56 Z "></path><path fill="rgb(5,5,5)" stroke="rgb(5,5,5)" stroke-width="1" opacity="1" d="M 83.5 56 L 88 56.5 L 82.5 58 L 83.5 56 Z "></path><path fill="rgb(5,5,5)" stroke="rgb(5,5,5)" stroke-width="1" opacity="1" d="M 95.5 57 L 94.5 59 L 95.5 57 Z "></path><path fill="rgb(5,5,5)" stroke="rgb(5,5,5)" stroke-width="1" opacity="1" d="M 136.5 58 L 138.5 60 L 159 60.5 L 136.5 61 L 136.5 58 Z "></path><path fill="rgb(5,5,5)" stroke="rgb(5,5,5)" stroke-width="1" opacity="1" d="M 92.5 59 L 93.5 61 L 92.5 59 Z "></path><path fill="rgb(5,5,5)" stroke="rgb(5,5,5)" stroke-width="1" opacity="1" d="M 42.5 60 L 47 60.5 L 42.5 61 L 42.5 60 Z "></path><path fill="rgb(5,5,5)" stroke="rgb(5,5,5)" stroke-width="1" opacity="1" d="M 86.5 62 L 89 62.5 L 86.5 63 L 86.5 62 Z "></path><path fill="rgb(175,152,152)" stroke="rgb(175,152,152)" stroke-width="1" opacity="1" d="M 55.5 35 L 58 35.5 L 55.5 36 L 55.5 35 Z "></path><path fill="rgb(175,152,152)" stroke="rgb(175,152,152)" stroke-width="1" opacity="1" d="M 83.5 35 L 86 35.5 L 83.5 36 L 83.5 35 Z "></path><path fill="rgb(175,152,152)" stroke="rgb(175,152,152)" stroke-width="1" opacity="1" d="M 118.5 35 L 121 35.5 L 118.5 36 L 118.5 35 Z "></path><path fill="rgb(175,152,152)" stroke="rgb(175,152,152)" stroke-width="1" opacity="1" d="M 22.5 36 L 30.5 36 L 32 37.5 L 31.5 39 L 31 37 L 22.5 37 L 22.5 36 Z "></path><path fill="rgb(175,152,152)" stroke="rgb(175,152,152)" stroke-width="1" opacity="1" d="M 103.5 36 L 112 36.5 L 103 37 L 103 61.5 Q 103.3 62.8 109.5 62 L 109.5 63 Q 103.5 64.5 102 61.5 L 102 37.5 L 103.5 36 Z "></path><path fill="rgb(175,152,152)" stroke="rgb(175,152,152)" stroke-width="1" opacity="1" d="M 135 36 L 161 36.5 L 136 37 L 136 43 L 145.5 43 L 146 44.5 L 144 45.5 L 144.5 44 L 136.5 44 L 135 42.5 L 135 36 Z "></path><path fill="rgb(175,152,152)" stroke="rgb(175,152,152)" stroke-width="1" opacity="1" d="M 176.5 36 L 179 36.5 L 176 37 L 177 43.5 L 175 42.5 Q 173.8 37.3 176.5 36 Z "></path><path fill="rgb(175,152,152)" stroke="rgb(175,152,152)" stroke-width="1" opacity="1" d="M 188.5 36 L 193 36.5 L 188.5 37 L 188.5 36 Z "></path><path fill="rgb(175,152,152)" stroke="rgb(175,152,152)" stroke-width="1" opacity="1" d="M 45.5 37 L 48.5 39 L 50 38.5 L 47.5 40 L 45.5 37 Z "></path><path fill="rgb(175,152,152)" stroke="rgb(175,152,152)" stroke-width="1" opacity="1" d="M 113.5 37 L 112.5 39 L 113.5 37 Z "></path><path fill="rgb(175,152,152)" stroke="rgb(175,152,152)" stroke-width="1" opacity="1" d="M 193.5 38 L 194 42.5 L 192 43.5 L 193.5 38 Z "></path><path fill="rgb(175,152,152)" stroke="rgb(175,152,152)" stroke-width="1" opacity="1" d="M 201.5 38 L 198.5 42 L 201.5 38 Z "></path><path fill="rgb(175,152,152)" stroke="rgb(175,152,152)" stroke-width="1" opacity="1" d="M 74.5 39 L 73.5 41 L 74.5 39 Z "></path><path fill="rgb(175,152,152)" stroke="rgb(175,152,152)" stroke-width="1" opacity="1" d="M 87.5 42 L 88.5 44 L 87.5 42 Z "></path><path fill="rgb(175,152,152)" stroke="rgb(175,152,152)" stroke-width="1" opacity="1" d="M 213.5 42 L 214.5 44 L 213.5 42 Z "></path><path fill="rgb(175,152,152)" stroke="rgb(175,152,152)" stroke-width="1" opacity="1" d="M 114.5 43 L 112.5 46 L 114.5 43 Z "></path><path fill="rgb(175,152,152)" stroke="rgb(175,152,152)" stroke-width="1" opacity="1" d="M 80.5 45 L 90 45.5 L 80.5 46 L 80.5 45 Z "></path><path fill="rgb(175,152,152)" stroke="rgb(175,152,152)" stroke-width="1" opacity="1" d="M 31.5 46 L 32 61.5 L 30.5 63 L 22.5 63 L 22.5 62 L 31 62 L 31.5 46 Z "></path><path fill="rgb(175,152,152)" stroke="rgb(175,152,152)" stroke-width="1" opacity="1" d="M 57.5 46 L 58 62 L 65 62.5 L 58.5 63 L 57 61.5 L 57.5 46 Z "></path><path fill="rgb(175,152,152)" stroke="rgb(175,152,152)" stroke-width="1" opacity="1" d="M 98.5 46 L 99 50.5 L 98 50.5 L 98.5 46 Z "></path><path fill="rgb(175,152,152)" stroke="rgb(175,152,152)" stroke-width="1" opacity="1" d="M 226.5 46 L 227 48.5 L 226 48.5 L 226.5 46 Z "></path><path fill="rgb(175,152,152)" stroke="rgb(175,152,152)" stroke-width="1" opacity="1" d="M 121.5 47 L 122 62 L 129 62.5 L 122.5 63 L 121 61.5 L 121.5 47 Z "></path><path fill="rgb(175,152,152)" stroke="rgb(175,152,152)" stroke-width="1" opacity="1" d="M 169.5 51 L 172 51.5 L 169.5 52 L 169.5 51 Z "></path><path fill="rgb(175,152,152)" stroke="rgb(175,152,152)" stroke-width="1" opacity="1" d="M 80.5 53 L 81.5 55 L 80.5 53 Z "></path><path fill="rgb(175,152,152)" stroke="rgb(175,152,152)" stroke-width="1" opacity="1" d="M 149.5 54 L 150.5 55 L 159.5 55 L 161 56.5 Q 162.3 61.8 159.5 63 L 135 62.5 L 160 62 L 160 56 L 149.5 56 L 149.5 54 Z "></path><path fill="rgb(175,152,152)" stroke="rgb(175,152,152)" stroke-width="1" opacity="1" d="M 164.5 56 L 165 58.5 L 164 58.5 L 164.5 56 Z "></path><path fill="rgb(175,152,152)" stroke="rgb(175,152,152)" stroke-width="1" opacity="1" d="M 73.5 58 L 74.5 60 L 73.5 58 Z "></path><path fill="rgb(175,152,152)" stroke="rgb(175,152,152)" stroke-width="1" opacity="1" d="M 40.5 62 L 49 62.5 L 40.5 63 L 40.5 62 Z "></path><path fill="rgb(175,152,152)" stroke="rgb(175,152,152)" stroke-width="1" opacity="1" d="M 83.5 63 L 87 63.5 L 83.5 64 L 83.5 63 Z "></path><path fill="rgb(255,51,51)" stroke="rgb(255,51,51)" stroke-width="1" opacity="1" d="M 179 27 L 188 27 L 188 37 L 193.5 37 L 193 38.5 L 193 43 L 188 43.5 L 188 53.5 Q 189.2 56 193 55 L 194 62 Q 191.3 63.9 184.5 63 L 181 61 Q 177.7 54.5 179 43 L 176 43 L 176 37 L 179 36.5 L 179 27 Z "></path><path fill="rgb(255,51,51)" stroke="rgb(255,51,51)" stroke-width="1" opacity="1" d="M 206.5 36 Q 218.7 34.3 222 41.5 L 224 51 L 205.5 51 L 205 52.5 L 206 55 Q 208.4 56.8 214.5 56 L 218.5 54 L 223 56 L 219.5 61 Q 215.1 64.1 206.5 63 L 199 58.5 Q 195 55 196 46.5 Q 197.6 39.6 203.5 37 L 206.5 36 Z M 210 41 L 208 42 L 205 46 L 215 46 L 215 44 L 210 41 Z "></path><path fill="rgb(255,51,51)" stroke="rgb(255,51,51)" stroke-width="1" opacity="1" d="M 237.5 36 Q 245.8 34.8 249 38.5 L 247 44 L 240.5 43 L 236 46.5 Q 234.5 54.5 239.5 56 Q 244.9 56.6 247 55 L 249 60.5 Q 245.8 64.3 237.5 63 Q 231 61.5 228 56.5 L 226 49.5 L 227 44.5 L 232.5 38 L 237.5 36 Z "></path><path fill="rgb(0,0,0)" stroke="rgb(0,0,0)" stroke-width="1" opacity="1" d="M 38.5 36 L 47 39 Q 45.9 41.7 48.5 41 L 52.5 37 L 57.5 36 L 61.5 37 L 65 40.5 L 66 42.5 L 66 61.5 L 65 61.5 L 64.5 43 L 64 60 L 59 60 L 59 61.5 L 58 61.5 L 58 45.5 L 57 43 L 51.5 42 L 48 46.5 L 48 62 L 41 62 L 41 47.5 L 38.5 43 L 34.5 42 L 31 44.5 L 31 61.5 Q 30.9 62.6 25.5 62 L 25.5 61 L 30 60.5 L 25 60 L 25 39.5 Q 25 38.5 29.5 39 L 31.5 40 L 38.5 36 Z M 43 60 L 43 61 L 47 61 L 43 60 Z "></path><path fill="rgb(0,0,0)" stroke="rgb(0,0,0)" stroke-width="1" opacity="1" d="M 83.5 36 L 90.5 37 L 96 41.5 L 98 49.5 L 97 49.5 L 96.5 47 L 96 50 L 79.5 50 L 79 52.5 L 81.5 56 L 87.5 57 L 92.5 54 L 97 56 L 94.5 60 L 90.5 62 L 83.5 63 Q 75.4 61.6 72 55.5 L 71 46.5 Q 72.4 40.4 77.5 38 L 83.5 36 Z M 84 39 L 84 40 L 86 40 L 84 39 Z M 83 41 L 79 46 L 90 46 L 90 44 Q 89 40 83 41 Z M 73 46 L 72 53 L 73 53 L 73 46 Z "></path><path fill="rgb(0,0,0)" stroke="rgb(0,0,0)" stroke-width="1" opacity="1" d="M 118.5 36 L 124.5 37 L 129 40.5 L 130 43.5 L 130 61.5 L 129 61.5 L 128.5 43 L 128 60 L 124 59.5 L 124 46.5 L 123 46.5 L 122.5 62 L 122 45.5 L 118.5 42 Q 113.4 41.4 112 44.5 L 111 46.5 L 110.5 62 L 109.5 47 L 109 60 L 104 60.5 L 109 61.5 L 103 62 L 103 37.5 Q 103.1 36.4 108.5 37 L 108.5 38 L 104 38.5 L 110 39 L 110.5 37 L 111 40 L 113 40 Q 111.9 37.3 114.5 38 L 118.5 36 Z "></path><path fill="rgb(0,0,0)" stroke="rgb(0,0,0)" stroke-width="1" opacity="1" d="M 23.5 37 L 24 61.5 L 23 61.5 L 23.5 37 Z "></path><path fill="rgb(0,0,0)" stroke="rgb(0,0,0)" stroke-width="1" opacity="1" d="M 25.5 37 L 31 37.5 L 25.5 38 L 25.5 37 Z "></path><path fill="rgb(0,0,0)" stroke="rgb(0,0,0)" stroke-width="1" opacity="1" d="M 136.5 37 L 137 42.5 L 136 42.5 L 136.5 37 Z "></path><path fill="rgb(0,0,0)" stroke="rgb(0,0,0)" stroke-width="1" opacity="1" d="M 138.5 37 L 157.5 37 L 158.5 38 L 160 37.5 L 148 56 L 160 56 L 160 62 L 135.5 62 L 135 60.5 L 147 43.5 L 138 43 L 138.5 39 L 157.5 39 L 157.5 38 L 138.5 38 L 138.5 37 Z M 138 59 L 137 61 L 159 61 L 139 60 L 138 59 Z "></path><path fill="rgb(0,0,0)" stroke="rgb(0,0,0)" stroke-width="1" opacity="1" d="M 169.5 52 L 175 54.5 L 176 57.5 L 173.5 62 L 170.5 63 L 166 60.5 L 165 56.5 L 167.5 53 L 169.5 52 Z "></path><path fill="rgb(0,0,0)" stroke="rgb(0,0,0)" stroke-width="1" opacity="1" d="M 60.5 61 L 64 61.5 L 60.5 62 L 60.5 61 Z "></path><path fill="rgb(0,0,0)" stroke="rgb(0,0,0)" stroke-width="1" opacity="1" d="M 124.5 61 L 128 61.5 L 124.5 62 L 124.5 61 Z "></path><path fill="rgb(82,82,82)" stroke="rgb(82,82,82)" stroke-width="1" opacity="1" d="M 22.5 37 L 23 61.5 L 22 61.5 L 22.5 37 Z "></path><path fill="rgb(82,82,82)" stroke="rgb(82,82,82)" stroke-width="1" opacity="1" d="M 93.5 38 L 95.5 41 L 93.5 38 Z "></path><path fill="rgb(82,82,82)" stroke="rgb(82,82,82)" stroke-width="1" opacity="1" d="M 127.5 38 L 128.5 40 L 127.5 38 Z "></path><path fill="rgb(82,82,82)" stroke="rgb(82,82,82)" stroke-width="1" opacity="1" d="M 83.5 41 L 87 41.5 L 83.5 42 L 83.5 41 Z "></path><path fill="rgb(82,82,82)" stroke="rgb(82,82,82)" stroke-width="1" opacity="1" d="M 81.5 42 L 80.5 44 L 81.5 42 Z "></path><path fill="rgb(82,82,82)" stroke="rgb(82,82,82)" stroke-width="1" opacity="1" d="M 50.5 43 L 49.5 45 L 50.5 43 Z "></path><path fill="rgb(82,82,82)" stroke="rgb(82,82,82)" stroke-width="1" opacity="1" d="M 119.5 43 L 120.5 45 L 119.5 43 Z "></path><path fill="rgb(82,82,82)" stroke="rgb(82,82,82)" stroke-width="1" opacity="1" d="M 66.5 44 L 67 61.5 L 65 62.5 L 66 61.5 L 66.5 44 Z "></path><path fill="rgb(82,82,82)" stroke="rgb(82,82,82)" stroke-width="1" opacity="1" d="M 130.5 45 L 131 61.5 L 129 62.5 L 130 61.5 L 130.5 45 Z "></path><path fill="rgb(82,82,82)" stroke="rgb(82,82,82)" stroke-width="1" opacity="1" d="M 111.5 46 L 112 61.5 L 110 62.5 L 111 61.5 L 111.5 46 Z "></path><path fill="rgb(82,82,82)" stroke="rgb(82,82,82)" stroke-width="1" opacity="1" d="M 144.5 46 L 143.5 48 L 144.5 46 Z "></path><path fill="rgb(82,82,82)" stroke="rgb(82,82,82)" stroke-width="1" opacity="1" d="M 154.5 46 L 153.5 48 L 154.5 46 Z "></path><path fill="rgb(82,82,82)" stroke="rgb(82,82,82)" stroke-width="1" opacity="1" d="M 70.5 47 L 71 51.5 L 70 51.5 L 70.5 47 Z "></path><path fill="rgb(82,82,82)" stroke="rgb(82,82,82)" stroke-width="1" opacity="1" d="M 142.5 49 L 141.5 51 L 142.5 49 Z "></path><path fill="rgb(82,82,82)" stroke="rgb(82,82,82)" stroke-width="1" opacity="1" d="M 152.5 49 L 151.5 51 L 152.5 49 Z "></path><path fill="rgb(82,82,82)" stroke="rgb(82,82,82)" stroke-width="1" opacity="1" d="M 80.5 50 L 98 50.5 L 80 51 L 79.5 53 L 79 51.5 L 80.5 50 Z "></path><path fill="rgb(82,82,82)" stroke="rgb(82,82,82)" stroke-width="1" opacity="1" d="M 140.5 52 L 139.5 54 L 140.5 52 Z "></path><path fill="rgb(82,82,82)" stroke="rgb(82,82,82)" stroke-width="1" opacity="1" d="M 150.5 52 L 149.5 54 L 150.5 52 Z "></path><path fill="rgb(82,82,82)" stroke="rgb(82,82,82)" stroke-width="1" opacity="1" d="M 91.5 53 L 90.5 55 L 91.5 53 Z "></path><path fill="rgb(82,82,82)" stroke="rgb(82,82,82)" stroke-width="1" opacity="1" d="M 96.5 58 L 95.5 60 L 96.5 58 Z "></path></svg></svg></g></g><defs><clipPath id="SvgjsClipPath1221"><rect width="1000" height="1000" x="0" y="0" rx="250" ry="250"></rect></clipPath></defs></svg></g></svg>